<svg width="27" height="44" viewBox="0 0 27 44" fill="none" xmlns="http://www.w3.org/2000/svg">
<path d="M13.3516 0V5.31705V7.21376V29.5054V31.3444V43.6672H26.0915V37.5231H23.4188V40.9864H16.0243V28.9046V27.7804V8.93879V7.04208V4.91262L23.4188 9.68328V15.4097H26.0915V8.22071L13.3516 0Z" fill="#48A1DA"/>
<path d="M2.67274 35.8725V4.92923L10.0672 9.70154V40.9865H2.67274V35.8725ZM0 5.33366V43.6673H12.74V8.23732L0 0.0166016V5.33366Z" fill="#477BBE"/>
<path d="M9.29774 8.95539V4.92922L16.6922 9.70153V25.8904H9.29774V8.95539ZM6.625 5.33365V39.5916L9.29774 39.6031V28.6851H16.6922V36.4882H16.7038V39.5965H19.365V8.23732L6.625 0.0166016V5.33365Z" fill="#355C94"/>
</svg>
